<?xml version="1.0" encoding="UTF-8" standalone="no"?>
<!-- Created with Inkscape (http://www.inkscape.org/) -->

<svg
   xmlns:dc="http://purl.org/dc/elements/1.1/"
   xmlns:cc="http://creativecommons.org/ns#"
   xmlns:rdf="http://www.w3.org/1999/02/22-rdf-syntax-ns#"
   xmlns:svg="http://www.w3.org/2000/svg"
   xmlns="http://www.w3.org/2000/svg"
   xmlns:sodipodi="http://sodipodi.sourceforge.net/DTD/sodipodi-0.dtd"
   xmlns:inkscape="http://www.inkscape.org/namespaces/inkscape"
   width="209.81375mm"
   height="38.773014mm"
   viewBox="0 0 209.81375 38.773014"
   version="1.1"
   id="svg8"
   inkscape:version="0.92.4 (f8dce91, 2019-08-02)"
   sodipodi:docname="logo.svg">
  <defs
     id="defs2" />
  <sodipodi:namedview
     id="base"
     pagecolor="#ffffff"
     bordercolor="#666666"
     borderopacity="1.0"
     inkscape:pageopacity="0.0"
     inkscape:pageshadow="2"
     inkscape:zoom="0.7"
     inkscape:cx="90.502993"
     inkscape:cy="-410.901"
     inkscape:document-units="mm"
     inkscape:current-layer="layer1"
     showgrid="false"
     inkscape:window-width="1853"
     inkscape:window-height="1025"
     inkscape:window-x="67"
     inkscape:window-y="27"
     inkscape:window-maximized="1" />
  <metadata
     id="metadata5">
    <rdf:RDF>
      <cc:Work
         rdf:about="">
        <dc:format>image/svg+xml</dc:format>
        <dc:type
           rdf:resource="http://purl.org/dc/dcmitype/StillImage" />
        <dc:title></dc:title>
      </cc:Work>
    </rdf:RDF>
  </metadata>
  <g
     inkscape:label="Пласт 1"
     inkscape:groupmode="layer"
     id="layer1"
     transform="translate(0,-0.44721691)">
    <g
       aria-label="VKStats"
       style="font-style:normal;font-weight:normal;font-size:59.60494232px;line-height:1.25;font-family:sans-serif;letter-spacing:0px;word-spacing:0px;fill:#000000;fill-opacity:1;stroke:none;stroke-width:0.31044242"
       id="text12">
      <path
         d="m 0.30050826,6.0500815 q -0.32782718,-0.7450618 -0.29802471,-1.519926 0,-0.7748643 0.26822224,-1.4305187 Q 0.5687305,2.41418 1.105175,1.8777355 1.6714219,1.3114886 2.4462862,1.0134639 3.1615455,0.71543915 3.9066073,0.74524162 q 0.7450617,0 1.4007161,0.29802468 0.6854569,0.2682223 1.2219013,0.8046668 0.5364445,0.506642 0.8642717,1.2517037 L 16.930287,25.391885 26.407473,3.0996368 q 0.298025,-0.7152593 0.834469,-1.2517037 0.566247,-0.5364445 1.221902,-0.8046668 0.685456,-0.29802468 1.430518,-0.29802468 0.745062,-0.0298025 1.490124,0.26822228 0.745061,0.2980247 1.281506,0.8344692 0.536444,0.5364444 0.804667,1.2219013 0.298024,0.6854568 0.298024,1.4603211 0.0298,0.7748642 -0.298024,1.519926 L 20.476781,36.478405 q -0.476839,1.132493 -1.430518,1.758345 -0.953679,0.59605 -2.086173,0.625852 h -0.298025 l -0.387432,-0.05961 q -0.953679,-0.149012 -1.758346,-0.745061 -0.774864,-0.59605 -1.192099,-1.579531 z"
         style="font-style:normal;font-variant:normal;font-weight:bold;font-stretch:normal;font-size:59.60494232px;font-family:'Aristotelica Display Trial';-inkscape-font-specification:'Aristotelica Display Trial, Bold';font-variant-ligatures:normal;font-variant-caps:normal;font-variant-numeric:normal;font-feature-settings:normal;text-align:start;writing-mode:lr-tb;text-anchor:start;fill:#ffffff;stroke-width:0.31044242"
         id="path33" />
      <path
         d="M 44.562766,18.507514 61.967409,1.7883281 q 0.59605,-0.5662469 1.311309,-0.83446918 0.715259,-0.26822224 1.430519,-0.23841977 0.745062,0.0298025 1.460321,0.35762965 0.715259,0.2980247 1.281506,0.8940741 0.536445,0.566247 0.774864,1.2815063 0.23842,0.6854568 0.178815,1.4305186 -0.0298,0.7450618 -0.357629,1.4603211 -0.327828,0.7152593 -0.923877,1.2815063 L 54.665804,19.312181 67.302052,32.246454 q 0.566247,0.596049 0.834469,1.341111 0.298025,0.715259 0.268222,1.460321 0,0.745062 -0.298025,1.460321 -0.298024,0.685457 -0.864271,1.251704 -0.566247,0.566247 -1.251704,0.834469 -0.685457,0.268222 -1.400716,0.268222 -0.685457,0 -1.370914,-0.268222 -0.655654,-0.298025 -1.221901,-0.894074 L 49.152347,24.587219 44.562766,28.997984 v 6.049902 q 0,0.804667 -0.298024,1.519926 -0.298025,0.685457 -0.83447,1.192099 -0.536444,0.506642 -1.251703,0.804667 -0.685457,0.298024 -1.490124,0.298024 -0.804667,0 -1.519926,-0.298024 -0.685457,-0.298025 -1.221901,-0.804667 -0.536445,-0.506642 -0.83447,-1.192099 -0.298024,-0.715259 -0.298024,-1.519926 V 4.5301555 q 0,-0.8046668 0.298024,-1.4901236 0.298025,-0.7152593 0.83447,-1.2219013 0.536444,-0.506642 1.221901,-0.8046667 0.715259,-0.29802475 1.519926,-0.29802475 0.804667,0 1.490124,0.29802475 0.715259,0.2980247 1.251703,0.8046667 0.536445,0.506642 0.83447,1.2219013 0.298024,0.6854568 0.298024,1.4901236 z"
         style="font-style:normal;font-variant:normal;font-weight:bold;font-stretch:normal;font-size:59.60494232px;font-family:'Aristotelica Display Trial';-inkscape-font-specification:'Aristotelica Display Trial, Bold';font-variant-ligatures:normal;font-variant-caps:normal;font-variant-numeric:normal;font-feature-settings:normal;text-align:start;writing-mode:lr-tb;text-anchor:start;fill:#ffffff;stroke-width:0.31044242"
         id="path35" />
      <path
         d="M 85.056878,24.020972 Q 81.868014,23.484527 79.334804,22.530848 76.801594,21.577169 75.013445,20.14665 73.2551,18.686329 72.30142,16.749169 q -0.953679,-1.966963 -0.953679,-4.500174 0,-2.563012 1.043087,-4.70879 1.072889,-2.1755804 2.861037,-3.7551113 1.817951,-1.579531 4.202149,-2.4438027 2.414,-0.89407409 5.096222,-0.89407409 1.788148,0 3.516692,0.35762965 1.758345,0.35762964 3.308074,1.07288894 1.579531,0.6854569 2.831235,1.7583458 1.281506,1.0430865 2.115975,2.4438027 0.327827,0.5364444 0.387432,1.1026914 0.05961,0.5662469 -0.0596,1.1026914 -0.11921,0.5364445 -0.387432,1.013284 -0.268222,0.4768396 -0.625852,0.8046672 -0.387432,0.387432 -0.953679,0.655654 -0.566247,0.268222 -1.221901,0.327827 -0.655654,0.05961 -1.341111,-0.08941 -0.685457,-0.149013 -1.311309,-0.59605 Q 90.004088,9.8647978 89.378236,9.4773657 88.782187,9.0601311 88.126533,8.7919088 87.500681,8.4938841 86.666212,8.3448718 85.861545,8.1958594 84.669446,8.1958594 q -1.311309,0 -2.354395,0.3278272 -1.013284,0.2980247 -1.728544,0.8344692 -0.715259,0.5364445 -1.102691,1.2815062 -0.387432,0.715259 -0.387432,1.549729 0,1.072889 0.536444,1.758345 0.566247,0.655655 1.639136,1.132494 1.072889,0.447037 2.622618,0.804667 1.579531,0.327827 3.606099,0.715259 1.996765,0.447037 3.933926,1.221902 1.937161,0.745061 3.457087,1.996765 1.519926,1.251704 2.443802,3.099457 0.923877,1.817951 0.923877,4.351161 0,2.473605 -1.043087,4.649185 -1.043086,2.175581 -2.890839,3.814717 -1.817951,1.609333 -4.380964,2.563012 -2.53321,0.923877 -5.513457,0.923877 -2.324593,0 -4.440568,-0.59605 -2.086173,-0.596049 -3.844519,-1.609333 -1.728543,-1.013284 -3.039852,-2.354395 -1.311309,-1.370914 -2.026568,-2.89084 -0.447037,-0.923877 -0.506642,-1.758346 -0.05961,-0.834469 0.178815,-1.490123 0.23842,-0.685457 0.715259,-1.192099 0.47684,-0.536445 1.102692,-0.864272 1.460321,-0.774864 2.712025,-0.327827 1.281506,0.447037 2.622617,2.115976 1.251704,1.609333 2.861037,2.414 1.639136,0.804666 3.963729,0.804666 1.072889,0 2.115975,-0.238419 1.043087,-0.268223 1.847754,-0.745062 0.834469,-0.506642 1.311308,-1.192099 0.506642,-0.685457 0.506642,-1.579531 0,-1.132494 -0.506642,-1.788148 -0.506642,-0.655655 -1.311308,-1.013284 -0.774865,-0.387432 -1.758346,-0.566247 -0.953679,-0.178815 -1.877556,-0.327827 z"
         style="font-style:normal;font-variant:normal;font-weight:bold;font-stretch:normal;font-size:59.60494232px;font-family:'Aristotelica Display Trial';-inkscape-font-specification:'Aristotelica Display Trial, Bold';font-variant-ligatures:normal;font-variant-caps:normal;font-variant-numeric:normal;font-feature-settings:normal;text-align:start;writing-mode:lr-tb;text-anchor:start;fill:#ffffff;stroke-width:0.31044242"
         id="path37" />
      <path
         d="m 109.94473,11.146304 h 9.11956 q 0.80466,0 1.51992,0.327827 0.71526,0.298025 1.2219,0.834469 0.53645,0.536445 0.83447,1.251704 0.32783,0.685457 0.32783,1.490124 0,0.774864 -0.32783,1.490123 -0.29802,0.685457 -0.83447,1.221902 -0.50664,0.506642 -1.2219,0.834469 -0.71526,0.298025 -1.51992,0.298025 h -9.11956 v 6.169111 q 0,1.341111 0.50664,2.503408 0.50664,1.162296 1.37092,2.026568 0.89407,0.864271 2.05637,1.370913 1.16229,0.506642 2.5034,0.506642 1.1921,0 2.20539,-0.327827 1.01328,-0.327827 1.81795,-1.043086 0.38743,-0.35763 0.77486,-0.625852 0.38743,-0.268222 0.86427,-0.447037 0.89408,-0.327827 1.84776,-0.178815 0.95368,0.11921 1.81795,0.894074 0.62585,0.596049 0.89407,1.370914 0.29803,0.774864 0.23842,1.609333 -0.0596,0.834469 -0.41723,1.639136 -0.35763,0.774864 -0.98348,1.370914 -1.78815,1.728543 -4.11275,2.622617 -2.29479,0.864272 -4.94721,0.864272 -2.95044,0 -5.54326,-1.102692 -2.56301,-1.132493 -4.50017,-3.039852 -1.90736,-1.93716 -3.03985,-4.529975 -1.10269,-2.592815 -1.10269,-5.54326 V 7.0633655 q 0,-0.8046667 0.29802,-1.519926 0.32783,-0.7152593 0.86427,-1.2517038 0.53645,-0.5364445 1.22191,-0.8344692 0.71526,-0.3278272 1.51992,-0.3278272 0.80467,0 1.49013,0.2980247 0.71525,0.2980247 1.2219,0.8344692 0.53644,0.5364445 0.83447,1.2517038 0.29802,0.7152593 0.29802,1.5497285 z"
         style="font-style:normal;font-variant:normal;font-weight:bold;font-stretch:normal;font-size:59.60494232px;font-family:'Aristotelica Display Trial';-inkscape-font-specification:'Aristotelica Display Trial, Bold';font-variant-ligatures:normal;font-variant-caps:normal;font-variant-numeric:normal;font-feature-settings:normal;text-align:start;writing-mode:lr-tb;text-anchor:start;fill:#ffffff;stroke-width:0.31044242"
         id="path39" />
      <path
         d="m 128.64578,25.004453 q 0,-2.950445 1.1325,-5.513457 1.13249,-2.592815 3.06965,-4.529976 1.93716,-1.93716 4.50018,-3.039852 2.59281,-1.132494 5.51345,-1.132494 2.89084,0 5.45385,1.102692 2.56302,1.102691 4.47038,3.010049 1.93716,1.877556 3.06965,4.440569 1.13249,2.563012 1.1921,5.453852 v 0.0596 0.149012 9.894421 q 0,0.804666 -0.32783,1.549728 -0.29802,0.715259 -0.83447,1.251704 -0.53644,0.536444 -1.2517,0.864272 -0.71526,0.298024 -1.54973,0.298024 -1.10269,0 -1.93716,-0.506642 -0.83447,-0.506642 -1.31131,-1.370913 -1.54973,1.043086 -3.30807,1.639135 -1.75835,0.59605 -3.66571,0.59605 -2.92064,0 -5.51345,-1.102692 -2.56302,-1.132493 -4.50018,-3.069654 -1.93716,-1.937161 -3.06965,-4.529976 -1.1325,-2.592815 -1.1325,-5.513457 z m 7.74865,0 q 0,1.341111 0.50664,2.53321 0.53644,1.162297 1.40071,2.056371 0.89408,0.864271 2.05638,1.370913 1.19209,0.506642 2.5034,0.506642 1.34111,0 2.50341,-0.506642 1.1921,-0.506642 2.05637,-1.370913 0.86427,-0.894074 1.37091,-2.056371 0.50665,-1.192099 0.50665,-2.53321 0,-1.341111 -0.50665,-2.503407 -0.50664,-1.192099 -1.37091,-2.056371 -0.86427,-0.894074 -2.05637,-1.400716 -1.1623,-0.506642 -2.50341,-0.506642 -1.31131,0 -2.5034,0.506642 -1.1623,0.506642 -2.05638,1.400716 -0.86427,0.864272 -1.40071,2.056371 -0.50664,1.162296 -0.50664,2.503407 z"
         style="font-style:normal;font-variant:normal;font-weight:bold;font-stretch:normal;font-size:59.60494232px;font-family:'Aristotelica Display Trial';-inkscape-font-specification:'Aristotelica Display Trial, Bold';font-variant-ligatures:normal;font-variant-caps:normal;font-variant-numeric:normal;font-feature-settings:normal;text-align:start;writing-mode:lr-tb;text-anchor:start;fill:#ffffff;stroke-width:0.31044242"
         id="path41" />
      <path
         d="m 170.13176,11.146304 h 9.11955 q 0.80467,0 1.51993,0.327827 0.71526,0.298025 1.2219,0.834469 0.53645,0.536445 0.83447,1.251704 0.32783,0.685457 0.32783,1.490124 0,0.774864 -0.32783,1.490123 -0.29802,0.685457 -0.83447,1.221902 -0.50664,0.506642 -1.2219,0.834469 -0.71526,0.298025 -1.51993,0.298025 h -9.11955 v 6.169111 q 0,1.341111 0.50664,2.503408 0.50664,1.162296 1.37091,2.026568 0.89408,0.864271 2.05637,1.370913 1.1623,0.506642 2.50341,0.506642 1.1921,0 2.20538,-0.327827 1.01329,-0.327827 1.81796,-1.043086 0.38743,-0.35763 0.77486,-0.625852 0.38743,-0.268222 0.86427,-0.447037 0.89408,-0.327827 1.84775,-0.178815 0.95368,0.11921 1.81795,0.894074 0.62586,0.596049 0.89408,1.370914 0.29802,0.774864 0.23842,1.609333 -0.0596,0.834469 -0.41724,1.639136 -0.35763,0.774864 -0.98348,1.370914 -1.78815,1.728543 -4.11274,2.622617 -2.29479,0.864272 -4.94721,0.864272 -2.95044,0 -5.54326,-1.102692 -2.56301,-1.132493 -4.50017,-3.039852 -1.90736,-1.93716 -3.03985,-4.529975 -1.10269,-2.592815 -1.10269,-5.54326 V 7.0633655 q 0,-0.8046667 0.29802,-1.519926 0.32783,-0.7152593 0.86427,-1.2517038 0.53645,-0.5364445 1.2219,-0.8344692 0.71526,-0.3278272 1.51993,-0.3278272 0.80467,0 1.49012,0.2980247 0.71526,0.2980247 1.2219,0.8344692 0.53645,0.5364445 0.83447,1.2517038 0.29803,0.7152593 0.29803,1.5497285 z"
         style="font-style:normal;font-variant:normal;font-weight:bold;font-stretch:normal;font-size:59.60494232px;font-family:'Aristotelica Display Trial';-inkscape-font-specification:'Aristotelica Display Trial, Bold';font-variant-ligatures:normal;font-variant-caps:normal;font-variant-numeric:normal;font-feature-settings:normal;text-align:start;writing-mode:lr-tb;text-anchor:start;fill:#ffffff;stroke-width:0.31044242"
         id="path43" />
      <path
         d="m 196.93908,27.835688 q -1.2517,-0.566247 -2.62261,-1.221901 -1.37092,-0.685457 -2.53321,-1.639136 -1.1623,-0.983482 -1.90736,-2.294791 -0.74506,-1.341111 -0.74506,-3.218666 0,-1.907359 0.71525,-3.516692 0.74507,-1.609334 2.08618,-2.741827 1.34111,-1.132494 3.21866,-1.758346 1.90736,-0.655655 4.23196,-0.655655 1.2219,0 2.59281,0.178815 1.40072,0.178815 2.65242,0.59605 1.2517,0.417234 2.23519,1.102691 1.01328,0.655654 1.49012,1.639136 0.53644,1.132494 0.35763,2.264988 -0.14901,1.102691 -0.77487,1.817951 -0.68545,0.774864 -1.72854,1.072889 -1.04308,0.298024 -2.05637,-0.11921 -0.62585,-0.208618 -1.10269,-0.387433 -0.47684,-0.208617 -0.95368,-0.357629 -0.44704,-0.178815 -0.98348,-0.268222 -0.50664,-0.08941 -1.1623,-0.08941 -1.81795,0 -2.4438,0.35763 -0.62585,0.357629 -0.62585,0.923876 0,0.35763 0.29802,0.59605 0.32783,0.208617 0.89408,0.417234 0.59605,0.208618 1.43052,0.417235 0.83446,0.208617 1.84775,0.536445 1.66894,0.536444 3.18886,1.281506 1.54973,0.715259 2.71203,1.788148 1.16229,1.043087 1.84775,2.473605 0.71526,1.430519 0.71526,3.397482 0,1.847753 -0.77486,3.457087 -0.74507,1.579531 -2.11598,2.771629 -1.37091,1.192099 -3.27827,1.877556 -1.87756,0.685457 -4.14254,0.685457 -1.31131,0 -2.89084,-0.268222 -1.54973,-0.23842 -3.06966,-0.83447 -1.49012,-0.596049 -2.80143,-1.579531 -1.28151,-0.983481 -2.05637,-2.473605 -0.59605,-1.132494 -0.62585,-2.115975 -0.0298,-1.013284 0.35763,-1.758346 0.38743,-0.745062 1.10269,-1.192099 0.74506,-0.476839 1.63913,-0.536444 0.92388,-0.08941 1.93716,0.268222 1.04309,0.35763 2.02657,1.251704 0.29803,0.298025 0.77487,0.625852 0.47684,0.298024 1.01328,0.566247 0.56625,0.268222 1.1921,0.447037 0.65565,0.149012 1.34111,0.149012 1.07289,0 1.84775,-0.327827 0.77487,-0.35763 0.77487,-0.953679 0,-0.417235 -0.65566,-0.804667 -0.65565,-0.417234 -1.51992,-0.745062 -0.83447,-0.357629 -1.69874,-0.625852 -0.86427,-0.298024 -1.25171,-0.476839 z"
         style="font-style:normal;font-variant:normal;font-weight:bold;font-stretch:normal;font-size:59.60494232px;font-family:'Aristotelica Display Trial';-inkscape-font-specification:'Aristotelica Display Trial, Bold';font-variant-ligatures:normal;font-variant-caps:normal;font-variant-numeric:normal;font-feature-settings:normal;text-align:start;writing-mode:lr-tb;text-anchor:start;fill:#ffffff;stroke-width:0.31044242"
         id="path45" />
    </g>
  </g>
</svg>
